<svg xmlns="http://www.w3.org/2000/svg" xmlns:xlink="http://www.w3.org/1999/xlink" viewBox="0 0 647 180"><defs><style>.cls-1,.cls-52{fill:none;}.cls-12,.cls-2{fill:#dbe0e1;}.cls-2,.cls-52{stroke:#dbe0e1;stroke-miterlimit:10;}.cls-3{isolation:isolate;}.cls-4{clip-path:url(#clip-path);}.cls-5{fill:#393a4c;}.cls-6{fill:url(#linear-gradient);}.cls-7{fill:url(#linear-gradient-2);}.cls-8{fill:url(#linear-gradient-3);}.cls-9{fill:url(#linear-gradient-4);}.cls-10{fill:url(#linear-gradient-5);}.cls-11{fill:url(#linear-gradient-6);}.cls-13{fill:#8b95a7;}.cls-14{fill:url(#linear-gradient-7);}.cls-15{fill:url(#linear-gradient-8);}.cls-16{fill:url(#linear-gradient-9);}.cls-17{fill:url(#linear-gradient-10);}.cls-18{fill:url(#linear-gradient-11);}.cls-19{fill:#cb1837;}.cls-20{fill:#dd3247;}.cls-21{fill:url(#linear-gradient-12);}.cls-22{fill:url(#linear-gradient-13);}.cls-23{fill:url(#linear-gradient-14);}.cls-24{fill:url(#linear-gradient-15);}.cls-25{fill:#d3b95d;}.cls-26{fill:#ebe761;}.cls-27{fill:#ebe88c;}.cls-28{fill:#e6c95e;}.cls-29{fill:#c4ab54;}.cls-30{fill:#ebd14a;}.cls-31{fill:#ebd175;}.cls-32{fill:#ad943e;}.cls-33{fill:#d0b248;}.cls-34{fill:#ebd14b;}.cls-35{fill:#ebd276;}.cls-36{fill:#d1b348;}.cls-37{fill:#ae953e;}.cls-38{fill:#ebeb44;}.cls-39{fill:#ebeb7d;}.cls-40{fill:#ebcd41;}.cls-41{fill:#c6a633;}.cls-42{fill:#ebda53;}.cls-43{fill:#ebdb7e;}.cls-44{fill:#d9bc51;}.cls-45{fill:#b79d47;}.cls-46{fill:#ebeb6e;}.cls-47{fill:#ebeb99;}.cls-48{fill:#ebd66c;}.cls-49{fill:#d1b862;}.cls-50{clip-path:url(#clip-path-3);}.cls-51{opacity:0.67;mix-blend-mode:multiply;fill:url(#linear-gradient-16);}</style><clipPath id="clip-path"><path class="cls-1" d="M280.46,103.51a18.34,18.34,0,0,0,3.29,6.53,17,17,0,0,0,6.44,4.89,22,22,0,0,0,9.06,1.75,25.81,25.81,0,0,0,9.58-1.75,24.91,24.91,0,0,0,7.83-4.89,26.59,26.59,0,0,0,5.11-6.53H328l10.56-67.17h-79.7l13.88,67.17Z"/></clipPath><linearGradient id="linear-gradient" x1="210.11" y1="56.74" x2="210.11" y2="129.66" gradientUnits="userSpaceOnUse"><stop offset="0" stop-color="#dd9d47"/><stop offset="0.22" stop-color="#d66841"/><stop offset="0.43" stop-color="#d03d3b"/><stop offset="0.59" stop-color="#cc2238"/><stop offset="0.69" stop-color="#cb1837"/><stop offset="1" stop-color="#cb1837"/></linearGradient><linearGradient id="linear-gradient-2" x1="213.63" y1="53" x2="206.59" y2="133.41" gradientUnits="userSpaceOnUse"><stop offset="0" stop-color="#dbe0e1"/><stop offset="0.69" stop-color="#cb1837"/><stop offset="1" stop-color="#cb1837"/></linearGradient><linearGradient id="linear-gradient-3" x1="302.55" y1="54.89" x2="302.55" y2="131.52" xlink:href="#linear-gradient"/><linearGradient id="linear-gradient-4" x1="305.94" y1="54.51" x2="299.17" y2="131.89" xlink:href="#linear-gradient-2"/><linearGradient id="linear-gradient-5" x1="387.83" y1="56.74" x2="387.83" y2="129.66" xlink:href="#linear-gradient"/><linearGradient id="linear-gradient-6" x1="388.11" y1="53.61" x2="381.37" y2="130.59" xlink:href="#linear-gradient-2"/><linearGradient id="linear-gradient-7" x1="91.96" y1="148.06" x2="91.96" y2="29.94" gradientUnits="userSpaceOnUse"><stop offset="0" stop-color="#c4c4c4"/><stop offset="0" stop-color="#c3c3c3"/><stop offset="0.08" stop-color="#aaafb7"/><stop offset="0.16" stop-color="#99a0ae"/><stop offset="0.25" stop-color="#8e98a9"/><stop offset="0.35" stop-color="#8b95a7"/></linearGradient><linearGradient id="linear-gradient-8" x1="62.21" y1="103.81" x2="62.21" y2="74.19" gradientUnits="userSpaceOnUse"><stop offset="0" stop-color="#ebebeb"/><stop offset="0.19" stop-color="#e8e8e8"/><stop offset="0.36" stop-color="#ddd"/><stop offset="0.52" stop-color="#cbcbcc"/><stop offset="0.67" stop-color="#b2b2b4"/><stop offset="0.82" stop-color="#919195"/><stop offset="0.97" stop-color="#69696f"/><stop offset="1" stop-color="#606066"/></linearGradient><linearGradient id="linear-gradient-9" x1="91.96" y1="74.06" x2="91.96" y2="44.44" xlink:href="#linear-gradient-8"/><linearGradient id="linear-gradient-10" x1="91.96" y1="133.56" x2="91.96" y2="103.94" xlink:href="#linear-gradient-8"/><linearGradient id="linear-gradient-11" x1="121.71" y1="103.81" x2="121.71" y2="74.19" xlink:href="#linear-gradient-8"/><linearGradient id="linear-gradient-12" x1="444.45" y1="111.69" x2="483.42" y2="79.72" gradientUnits="userSpaceOnUse"><stop offset="0" stop-color="#dbe0e1"/><stop offset="0.19" stop-color="#dbdfe1"/><stop offset="0.47" stop-color="#bfc6cc"/><stop offset="0.88" stop-color="#97a0b0"/><stop offset="1" stop-color="#8b95a7"/></linearGradient><linearGradient id="linear-gradient-13" x1="548.8" y1="75.78" x2="501.9" y2="104.18" xlink:href="#linear-gradient-12"/><linearGradient id="linear-gradient-14" x1="550.4" y1="112.5" x2="550.01" y2="77.62" gradientUnits="userSpaceOnUse"><stop offset="0" stop-color="#dbe0e1"/><stop offset="0.11" stop-color="#d6dcde"/><stop offset="0.23" stop-color="#c9cfd4"/><stop offset="0.35" stop-color="#b2bac3"/><stop offset="0.48" stop-color="#929cac"/><stop offset="0.51" stop-color="#8b95a7"/><stop offset="0.53" stop-color="#9099aa"/><stop offset="0.66" stop-color="#b0b8c2"/><stop offset="0.78" stop-color="#c8ced3"/><stop offset="0.9" stop-color="#d6dbdd"/><stop offset="1" stop-color="#dbe0e1"/></linearGradient><linearGradient id="linear-gradient-15" x1="479.39" y1="101.31" x2="509.12" y2="86.45" xlink:href="#linear-gradient-14"/><clipPath id="clip-path-3"><polygon id="_Clipping_Path_" data-name="&lt;Clipping Path&gt;" class="cls-2" points="317.36 128.42 284.31 128.42 275.46 63.33 301.16 57.99 326.22 63.33 317.36 128.42"/></clipPath><linearGradient id="linear-gradient-16" x1="306.22" y1="124.89" x2="306.22" y2="81.33" gradientUnits="userSpaceOnUse"><stop offset="0" stop-color="#393a4c"/><stop offset="0.59" stop-color="#393a4c" stop-opacity="0.43"/><stop offset="1" stop-color="#393a4c" stop-opacity="0"/></linearGradient></defs><title>logo_light</title><g class="cls-3"><g id="Layer_2" data-name="Layer 2"><g id="Icons_and_Form_Fields" data-name="Icons and Form Fields"><rect class="cls-5" width="647" height="180" rx="90" ry="90"/><path class="cls-6" d="M174,56.74h24.31l10.09,47.59h.21L232.2,56.74h24.2l-10.2,72.92H230.14L238,73.73h-.21l-27,55.93H198.52L187.91,73.73h-.21l-7.83,55.93H163.81Z"/><path class="cls-7" d="M255.26,57.74l-9.92,70.92h-14L239,73.87l.16-1.14h-2l-.27.57-26.71,55.36h-10.8L188.9,73.55l-.15-.81h-1.9l-.12.86L179,128.66H165l9.92-70.92h22.63l9.93,46.79.17.79h1.64l.28-.56,23.31-47h22.44m1.15-1H232.2l-23.59,47.59h-.21L198.32,56.74H174l-10.2,72.92h16.07l7.83-55.93h.21l10.61,55.93h12.26l27-55.93H238l-7.83,55.93h16.07l10.2-72.92Z"/><path class="cls-8" d="M263.2,93.2a45.21,45.21,0,0,1,5.2-15.86,42.37,42.37,0,0,1,23.43-19.78A48.43,48.43,0,0,1,308,54.89a41.59,41.59,0,0,1,15.35,2.68,29.76,29.76,0,0,1,11.33,7.67,29.26,29.26,0,0,1,6.49,12.1,39,39,0,0,1,.72,15.86,45.88,45.88,0,0,1-5.15,15.86,42,42,0,0,1-9.89,12.1,43.54,43.54,0,0,1-13.54,7.67,48,48,0,0,1-16.12,2.68,42,42,0,0,1-15.4-2.68,29.64,29.64,0,0,1-11.38-7.67,29.21,29.21,0,0,1-6.49-12.1A38.93,38.93,0,0,1,263.2,93.2Zm16.69,0a25.15,25.15,0,0,0,.31,9.42,18.6,18.6,0,0,0,3.55,7.42,17,17,0,0,0,6.44,4.89,22,22,0,0,0,9.06,1.75,25.81,25.81,0,0,0,9.58-1.75,24.91,24.91,0,0,0,7.83-4.89,26.78,26.78,0,0,0,5.61-7.42,29.11,29.11,0,0,0,2.94-9.42,25.8,25.8,0,0,0-.26-9.37,17.8,17.8,0,0,0-3.55-7.47,17.5,17.5,0,0,0-6.49-4.89,22,22,0,0,0-9.06-1.75,25.84,25.84,0,0,0-9.58,1.75,25,25,0,0,0-7.83,4.89,26.53,26.53,0,0,0-5.61,7.47A29.55,29.55,0,0,0,279.89,93.2Z"/><path class="cls-9" d="M308,55.89a40.79,40.79,0,0,1,15,2.61,28.91,28.91,0,0,1,11,7.42,28.4,28.4,0,0,1,6.27,11.69,38.15,38.15,0,0,1,.69,15.46,45.08,45.08,0,0,1-5,15.52,41.23,41.23,0,0,1-9.65,11.82A42.75,42.75,0,0,1,313,127.9a47.21,47.21,0,0,1-15.79,2.62,41.2,41.2,0,0,1-15-2.61,28.79,28.79,0,0,1-11-7.41,28.36,28.36,0,0,1-6.27-11.69,38.14,38.14,0,0,1-.69-15.46,44.41,44.41,0,0,1,5.08-15.52,41.36,41.36,0,0,1,22.89-19.32A47.65,47.65,0,0,1,308,55.89m-8.75,61.8a26.93,26.93,0,0,0,9.95-1.82,26,26,0,0,0,8.14-5.09,27.89,27.89,0,0,0,5.82-7.69,30.22,30.22,0,0,0,3-9.74,26.89,26.89,0,0,0-.27-9.74,18.87,18.87,0,0,0-3.76-7.88,18.57,18.57,0,0,0-6.85-5.17,23.12,23.12,0,0,0-9.47-1.84,27,27,0,0,0-9.95,1.82,26.07,26.07,0,0,0-8.14,5.09,27.65,27.65,0,0,0-5.82,7.75,30.67,30.67,0,0,0-3,9.69,26.25,26.25,0,0,0,.33,9.8,19.68,19.68,0,0,0,3.75,7.81,18.07,18.07,0,0,0,6.81,5.18,23.09,23.09,0,0,0,9.47,1.84M308,54.89a48.42,48.42,0,0,0-16.17,2.68,42.37,42.37,0,0,0-23.43,19.78,45.21,45.21,0,0,0-5.2,15.86,38.94,38.94,0,0,0,.72,15.86,29.21,29.21,0,0,0,6.49,12.1,29.64,29.64,0,0,0,11.38,7.67,42,42,0,0,0,15.4,2.68,48,48,0,0,0,16.12-2.68,43.54,43.54,0,0,0,13.54-7.67,42,42,0,0,0,9.89-12.1A45.87,45.87,0,0,0,341.9,93.2a39,39,0,0,0-.72-15.86,29.26,29.26,0,0,0-6.49-12.1,29.76,29.76,0,0,0-11.33-7.67A41.59,41.59,0,0,0,308,54.89Zm-8.75,61.8a22,22,0,0,1-9.06-1.75,17,17,0,0,1-6.44-4.89,18.6,18.6,0,0,1-3.55-7.42,25.15,25.15,0,0,1-.31-9.42,29.54,29.54,0,0,1,2.94-9.37,26.53,26.53,0,0,1,5.61-7.47,25,25,0,0,1,7.83-4.89,25.84,25.84,0,0,1,9.58-1.75,22,22,0,0,1,9.06,1.75,17.49,17.49,0,0,1,6.49,4.89A17.8,17.8,0,0,1,325,83.83a25.79,25.79,0,0,1,.26,9.37,29.1,29.1,0,0,1-2.94,9.42,26.77,26.77,0,0,1-5.61,7.42,24.91,24.91,0,0,1-7.83,4.89,25.81,25.81,0,0,1-9.58,1.75Z"/><path class="cls-10" d="M351.78,56.74h18.33l11.33,47.79h.21l25-47.79h17.2l-40.27,72.92H370.74Z"/><path class="cls-11" d="M422.19,57.74,383,128.66H371.51L353.08,57.74h16.25l11.15,47,.18.77h1.6l.28-.54,24.75-47.26h14.9m1.69-1h-17.2l-25,47.79h-.21L370.12,56.74H351.78l19,72.92h12.88l40.27-72.92Z"/><path class="cls-12" d="M433,51.61l8.85-7.7L449,52.13,438.2,129.66H422.13Z"/><path class="cls-12" d="M464.05,56.74h21.84l23.9,50.68H510l7.11-50.68h16.07L523,129.66H502L477.34,77.75h-.21l-7.21,51.91H453.85Z"/><path class="cls-12" d="M605.57,124.51a68.09,68.09,0,0,1-15.66,5.36,78.35,78.35,0,0,1-16,1.65,42,42,0,0,1-15.4-2.68,29.64,29.64,0,0,1-11.38-7.67,29.21,29.21,0,0,1-6.49-12.1A38.93,38.93,0,0,1,540,93.2a45.21,45.21,0,0,1,5.2-15.86A42.37,42.37,0,0,1,568.6,57.56a48.43,48.43,0,0,1,16.17-2.68A55.09,55.09,0,0,1,600.58,57a26.4,26.4,0,0,1,11.9,7.26L599.39,76.62a18.14,18.14,0,0,0-6.69-5.15,24.92,24.92,0,0,0-10.09-1.75A25.84,25.84,0,0,0,573,71.47a24.94,24.94,0,0,0-7.83,4.89,26.53,26.53,0,0,0-5.61,7.47,29.54,29.54,0,0,0-2.94,9.37,25.15,25.15,0,0,0,.31,9.42,18.6,18.6,0,0,0,3.55,7.42,17,17,0,0,0,6.44,4.89,22,22,0,0,0,9.06,1.75,32.84,32.84,0,0,0,9.27-1.18,36.47,36.47,0,0,0,6.39-2.42l1.65-11.84H580.23L582.4,86.4h28.53Z"/><path class="cls-13" d="M92,33.94A55.06,55.06,0,1,1,36.9,89,55.12,55.12,0,0,1,92,33.94m0-3A58.06,58.06,0,1,0,150,89,58.13,58.13,0,0,0,92,30.94Z"/><path class="cls-14" d="M92,30.94A58.06,58.06,0,1,1,33.9,89,58.13,58.13,0,0,1,92,30.94m0-1A59.06,59.06,0,1,0,151,89,59.13,59.13,0,0,0,92,29.94Z"/><path class="cls-12" d="M92,36.34A52.66,52.66,0,1,0,144.62,89,52.66,52.66,0,0,0,92,36.34ZM62.21,103.81A14.81,14.81,0,1,1,77,89,14.81,14.81,0,0,1,62.21,103.81ZM92,44.44A14.81,14.81,0,1,1,77.14,59.25,14.81,14.81,0,0,1,92,44.44ZM98.71,89A6.75,6.75,0,1,1,92,82.25,6.75,6.75,0,0,1,98.71,89ZM92,133.56a14.81,14.81,0,1,1,14.81-14.81A14.81,14.81,0,0,1,92,133.56Zm29.75-29.75A14.81,14.81,0,1,1,136.52,89,14.81,14.81,0,0,1,121.71,103.81Z"/><path class="cls-12" d="M62.21,77.59A11.41,11.41,0,1,1,50.79,89,11.43,11.43,0,0,1,62.21,77.59m0-3.4A14.81,14.81,0,1,0,77,89,14.81,14.81,0,0,0,62.21,74.19Z"/><path class="cls-15" d="M62.21,76.19A12.81,12.81,0,1,1,49.39,89,12.83,12.83,0,0,1,62.21,76.19m0-2A14.81,14.81,0,1,0,77,89,14.81,14.81,0,0,0,62.21,74.19Z"/><path class="cls-12" d="M92,47.84A11.41,11.41,0,1,1,80.54,59.25,11.43,11.43,0,0,1,92,47.84m0-3.4a14.81,14.81,0,1,0,14.81,14.81A14.81,14.81,0,0,0,92,44.44Z"/><path class="cls-16" d="M92,46.44A12.81,12.81,0,1,1,79.14,59.25,12.83,12.83,0,0,1,92,46.44m0-2a14.81,14.81,0,1,0,14.81,14.81A14.81,14.81,0,0,0,92,44.44Z"/><path class="cls-12" d="M92,107.34a11.41,11.41,0,1,1-11.41,11.41A11.43,11.43,0,0,1,92,107.34m0-3.4a14.81,14.81,0,1,0,14.81,14.81A14.81,14.81,0,0,0,92,103.94Z"/><path class="cls-17" d="M92,105.94a12.81,12.81,0,1,1-12.81,12.81A12.83,12.83,0,0,1,92,105.94m0-2a14.81,14.81,0,1,0,14.81,14.81A14.81,14.81,0,0,0,92,103.94Z"/><path class="cls-12" d="M121.71,77.59A11.41,11.41,0,1,1,110.29,89a11.43,11.43,0,0,1,11.41-11.41m0-3.4A14.81,14.81,0,1,0,136.52,89a14.81,14.81,0,0,0-14.81-14.81Z"/><path class="cls-18" d="M121.71,76.19A12.81,12.81,0,1,1,108.89,89a12.83,12.83,0,0,1,12.81-12.81m0-2A14.81,14.81,0,1,0,136.52,89a14.81,14.81,0,0,0-14.81-14.81Z"/><path class="cls-19" d="M131.43,138.13a63.13,63.13,0,0,1-14.87,8.93h386.2l8.93-8.93Z"/><path class="cls-20" d="M128.69,140.2v1.86H507.76l3.93-3.93H131.43C130.54,138.85,129.62,139.53,128.69,140.2Z"/><polygon class="cls-21" points="453.86 129.66 469.92 129.66 477.13 77.75 464.05 56.74 453.86 129.66"/><polygon class="cls-22" points="517.1 56.74 509.99 107.42 522.97 129.66 533.16 56.74 517.1 56.74"/><path class="cls-23" d="M560.81,110.38c-.1-.12-.21-.22-.3-.34a18.6,18.6,0,0,1-3.55-7.42,25.15,25.15,0,0,1-.31-9.42,29.54,29.54,0,0,1,2.94-9.37q.57-1.12,1.23-2.16V79.6H544a46.05,46.05,0,0,0-4,13.6,38.93,38.93,0,0,0,.72,15.86,33.29,33.29,0,0,0,1.21,3.59h18.92Z"/><rect class="cls-12" x="435.69" y="86.4" width="147" height="14.66"/><rect class="cls-24" x="474.62" y="86.4" width="39.87" height="14.66"/><polygon class="cls-12" points="509.78 107.42 485.89 56.74 464.05 56.74 477.13 77.75 477.34 77.75 501.96 129.66 522.97 129.66 509.99 107.42 509.78 107.42"/><polygon class="cls-12" points="618.56 58.58 618.56 82.13 593.3 82.13 618.56 58.58"/><polygon class="cls-25" points="534.48 138.13 525.55 147.06 506.69 147.06 515.62 138.13 534.48 138.13"/><polygon class="cls-12" points="549.08 138.13 540.15 147.06 529.48 147.06 538.41 138.13 549.08 138.13"/><polygon class="cls-26" points="452.27 43.72 441.96 39.05 431.95 44.35 433.21 33.09 425.08 25.22 436.17 22.94 441.15 12.77 446.74 22.61 457.95 24.2 450.32 32.57 452.27 43.72"/><polygon class="cls-27" points="441.15 12.77 441.68 30.05 436.17 22.94 441.15 12.77"/><polygon class="cls-28" points="441.15 12.77 441.68 30.05 446.74 22.61 441.15 12.77"/><polygon class="cls-29" points="457.95 24.2 441.68 30.05 450.32 32.57 457.95 24.2"/><polygon class="cls-28" points="452.27 43.72 441.68 30.05 441.96 39.05 452.27 43.72"/><polygon class="cls-26" points="425.08 25.22 441.68 30.05 436.17 22.94 425.08 25.22"/><polygon class="cls-29" points="431.95 44.35 441.68 30.05 441.96 39.05 431.95 44.35"/><polygon class="cls-28" points="425.08 25.22 441.68 30.05 433.21 33.09 425.08 25.22"/><polygon class="cls-30" points="292.83 67.32 284.52 66.24 278.15 71.61 277.13 64.03 269.87 60.45 277.55 56.84 279.43 49.25 285.19 54.6 293.62 53.5 289.5 60.41 292.83 67.32"/><polygon class="cls-31" points="279.43 49.25 282.78 60.43 277.55 56.84 279.43 49.25"/><polygon class="cls-32" points="293.62 53.5 282.78 60.43 289.5 60.41 293.62 53.5"/><polygon class="cls-33" points="292.83 67.32 282.78 60.43 284.52 66.24 292.83 67.32"/><polygon class="cls-30" points="269.87 60.45 282.78 60.43 277.55 56.84 269.87 60.45"/><polygon class="cls-32" points="278.15 71.61 282.78 60.43 284.52 66.24 278.15 71.61"/><polygon class="cls-33" points="269.87 60.45 282.78 60.43 277.13 64.03 269.87 60.45"/><polygon class="cls-34" points="315.01 62.34 309.34 56.18 301 56.19 305.1 49.73 301.84 42.31 310.05 44.49 316.37 39.89 317.33 47.69 324.5 52.27 316.9 54.92 315.01 62.34"/><polygon class="cls-35" points="316.37 39.89 311.74 50.6 310.05 44.49 316.37 39.89"/><polygon class="cls-36" points="316.37 39.89 311.74 50.6 317.33 47.69 316.37 39.89"/><polygon class="cls-37" points="324.5 52.27 311.74 50.6 316.9 54.92 324.5 52.27"/><polygon class="cls-36" points="315.01 62.34 311.74 50.6 309.34 56.18 315.01 62.34"/><polygon class="cls-34" points="301.84 42.31 311.74 50.6 310.05 44.49 301.84 42.31"/><polygon class="cls-37" points="301 56.19 311.74 50.6 309.34 56.18 301 56.19"/><polygon class="cls-36" points="301.84 42.31 311.74 50.6 305.1 49.73 301.84 42.31"/><polygon class="cls-38" points="309.73 68.54 298.32 63.07 286.64 67.75 288.77 56.4 280.04 47.82 292.77 46.28 299.05 36.29 304.78 46.69 317.4 49.09 308.22 57.06 309.73 68.54"/><polygon class="cls-39" points="299.05 36.29 298.57 53.9 292.77 46.28 299.05 36.29"/><polygon class="cls-40" points="299.05 36.29 298.57 53.9 304.78 46.69 299.05 36.29"/><polygon class="cls-41" points="317.4 49.1 298.57 53.9 308.22 57.06 317.4 49.1"/><polygon class="cls-40" points="309.73 68.54 298.57 53.9 298.32 63.07 309.73 68.54"/><polygon class="cls-38" points="280.04 47.82 298.57 53.9 292.77 46.28 280.04 47.82"/><polygon class="cls-41" points="286.64 67.75 298.57 53.9 298.32 63.07 286.64 67.75"/><polygon class="cls-40" points="280.04 47.82 298.57 53.9 288.77 56.4 280.04 47.82"/><polygon class="cls-42" points="319.68 72.49 313.88 66.44 305.55 66.62 309.52 60.08 306.1 52.73 314.35 54.74 320.57 50.01 321.7 57.79 328.96 62.22 321.42 65.02 319.68 72.49"/><polygon class="cls-43" points="320.57 50.01 316.17 60.82 314.35 54.74 320.57 50.01"/><polygon class="cls-44" points="320.57 50.01 316.17 60.82 321.7 57.79 320.57 50.01"/><polygon class="cls-45" points="328.96 62.22 316.17 60.82 321.42 65.02 328.96 62.22"/><polygon class="cls-44" points="319.68 72.49 316.17 60.82 313.88 66.44 319.68 72.49"/><polygon class="cls-42" points="306.1 52.73 316.17 60.82 314.35 54.74 306.1 52.73"/><polygon class="cls-45" points="305.55 66.62 316.17 60.82 313.88 66.44 305.55 66.62"/><polygon class="cls-44" points="306.1 52.73 316.17 60.82 309.52 60.08 306.1 52.73"/><polygon class="cls-26" points="295.49 62.93 289.96 63.02 286.31 67.14 284.92 62.28 279.83 60.64 284.5 57.55 285 52.42 289.28 55.36 294.68 53.83 292.65 58.74 295.49 62.93"/><polygon class="cls-27" points="285 52.42 288.26 59.39 284.5 57.55 285 52.42"/><polygon class="cls-28" points="285 52.42 288.26 59.39 289.28 55.36 285 52.42"/><polygon class="cls-29" points="294.68 53.83 288.26 59.39 292.65 58.74 294.68 53.83"/><polygon class="cls-28" points="295.49 62.93 288.26 59.39 289.96 63.02 295.49 62.93"/><polygon class="cls-26" points="279.83 60.64 288.26 59.39 284.5 57.55 279.83 60.64"/><polygon class="cls-29" points="286.31 67.14 288.26 59.39 289.96 63.02 286.31 67.14"/><polygon class="cls-28" points="279.83 60.64 288.26 59.39 284.92 62.28 279.83 60.64"/><polygon class="cls-46" points="307.77 67.1 304.89 62.38 299.49 61.33 302.98 57.67 301.82 52.45 306.85 54.91 311.53 52.74 311.15 57.92 315.21 61.8 309.94 62.54 307.77 67.1"/><polygon class="cls-47" points="311.53 52.74 307.16 59.09 306.85 54.91 311.53 52.74"/><polygon class="cls-48" points="311.53 52.74 307.16 59.09 311.15 57.92 311.53 52.74"/><polygon class="cls-49" points="315.21 61.8 307.16 59.09 309.94 62.54 315.21 61.8"/><polygon class="cls-48" points="307.77 67.11 307.16 59.09 304.89 62.38 307.77 67.11"/><polygon class="cls-46" points="301.82 52.45 307.16 59.09 306.85 54.91 301.82 52.45"/><polygon class="cls-49" points="299.49 61.33 307.16 59.09 304.89 62.38 299.49 61.33"/><polygon class="cls-48" points="301.82 52.45 307.16 59.09 302.98 57.67 301.82 52.45"/><g class="cls-4"><polygon id="_Clipping_Path_2" data-name="&lt;Clipping Path&gt;" class="cls-12" points="317.36 128.42 284.31 128.42 275.46 63.33 301.16 57.99 326.22 63.33 317.36 128.42"/><g class="cls-50"><polygon class="cls-20" points="322.86 131.17 319.93 131.17 332.21 54.76 337.03 54.76 322.86 131.17"/><polygon class="cls-20" points="316.99 131.17 314.05 131.17 322.56 54.76 327.38 54.76 316.99 131.17"/><polygon class="cls-20" points="311.12 131.17 308.18 131.17 312.9 54.76 317.73 54.76 311.12 131.17"/><polygon class="cls-20" points="305.24 131.17 302.31 131.17 303.25 54.76 308.08 54.76 305.24 131.17"/><polygon class="cls-20" points="299.37 131.17 296.43 131.17 293.6 54.76 298.42 54.76 299.37 131.17"/><polygon class="cls-20" points="293.5 131.17 290.56 131.17 283.95 54.76 288.77 54.76 293.5 131.17"/><polygon class="cls-20" points="287.62 131.17 284.69 131.17 274.29 54.76 279.12 54.76 287.62 131.17"/><rect class="cls-51" x="272.67" y="81.33" width="67.1" height="43.57"/></g><polygon id="_Clipping_Path_3" data-name="&lt;Clipping Path&gt;" class="cls-52" points="317.36 128.42 284.31 128.42 275.46 63.33 301.16 57.99 326.22 63.33 317.36 128.42"/></g></g></g></g></svg>