<svg xmlns="http://www.w3.org/2000/svg" xmlns:xlink="http://www.w3.org/1999/xlink" viewBox="0 0 585.66 135.29"><defs><style>.cls-1,.cls-51{fill:none;}.cls-11,.cls-2{fill:#dbe0e1;}.cls-2,.cls-51{stroke:#dbe0e1;stroke-miterlimit:10;}.cls-3{isolation:isolate;}.cls-4{clip-path:url(#clip-path);}.cls-5{fill:url(#linear-gradient);}.cls-6{fill:url(#linear-gradient-2);}.cls-7{fill:url(#linear-gradient-3);}.cls-8{fill:url(#linear-gradient-4);}.cls-9{fill:url(#linear-gradient-5);}.cls-10{fill:url(#linear-gradient-6);}.cls-12{fill:#8b95a7;}.cls-13{fill:url(#linear-gradient-7);}.cls-14{fill:url(#linear-gradient-8);}.cls-15{fill:url(#linear-gradient-9);}.cls-16{fill:url(#linear-gradient-10);}.cls-17{fill:url(#linear-gradient-11);}.cls-18{fill:#cb1837;}.cls-19{fill:#dd3247;}.cls-20{fill:url(#linear-gradient-12);}.cls-21{fill:url(#linear-gradient-13);}.cls-22{fill:url(#linear-gradient-14);}.cls-23{fill:url(#linear-gradient-15);}.cls-24{fill:#d3b95d;}.cls-25{fill:#ebe761;}.cls-26{fill:#ebe88c;}.cls-27{fill:#e6c95e;}.cls-28{fill:#c4ab54;}.cls-29{fill:#ebd14a;}.cls-30{fill:#ebd175;}.cls-31{fill:#ad943e;}.cls-32{fill:#d0b248;}.cls-33{fill:#ebd14b;}.cls-34{fill:#ebd276;}.cls-35{fill:#d1b348;}.cls-36{fill:#ae953e;}.cls-37{fill:#ebeb44;}.cls-38{fill:#ebeb7d;}.cls-39{fill:#ebcd41;}.cls-40{fill:#c6a633;}.cls-41{fill:#ebda53;}.cls-42{fill:#ebdb7e;}.cls-43{fill:#d9bc51;}.cls-44{fill:#b79d47;}.cls-45{fill:#ebeb6e;}.cls-46{fill:#ebeb99;}.cls-47{fill:#ebd66c;}.cls-48{fill:#d1b862;}.cls-49{clip-path:url(#clip-path-3);}.cls-50{opacity:0.67;mix-blend-mode:multiply;fill:url(#linear-gradient-16);}</style><clipPath id="clip-path"><path class="cls-1" d="M247.56,90.74a18.34,18.34,0,0,0,3.29,6.53,17,17,0,0,0,6.44,4.89,22,22,0,0,0,9.06,1.75,25.81,25.81,0,0,0,9.58-1.75,24.91,24.91,0,0,0,7.83-4.89,26.59,26.59,0,0,0,5.11-6.53h6.24l10.56-67.17H226l13.88,67.17Z"/></clipPath><linearGradient id="linear-gradient" x1="177.21" y1="43.97" x2="177.21" y2="116.9" gradientUnits="userSpaceOnUse"><stop offset="0" stop-color="#dd9d47"/><stop offset="0.22" stop-color="#d66841"/><stop offset="0.43" stop-color="#d03d3b"/><stop offset="0.59" stop-color="#cc2238"/><stop offset="0.69" stop-color="#cb1837"/><stop offset="1" stop-color="#cb1837"/></linearGradient><linearGradient id="linear-gradient-2" x1="180.73" y1="40.23" x2="173.69" y2="120.64" gradientUnits="userSpaceOnUse"><stop offset="0" stop-color="#dbe0e1"/><stop offset="0.69" stop-color="#cb1837"/><stop offset="1" stop-color="#cb1837"/></linearGradient><linearGradient id="linear-gradient-3" x1="269.65" y1="42.12" x2="269.65" y2="118.75" xlink:href="#linear-gradient"/><linearGradient id="linear-gradient-4" x1="273.04" y1="41.74" x2="266.27" y2="119.12" xlink:href="#linear-gradient-2"/><linearGradient id="linear-gradient-5" x1="354.93" y1="43.97" x2="354.93" y2="116.9" xlink:href="#linear-gradient"/><linearGradient id="linear-gradient-6" x1="355.21" y1="40.84" x2="348.47" y2="117.83" xlink:href="#linear-gradient-2"/><linearGradient id="linear-gradient-7" x1="59.06" y1="135.29" x2="59.06" y2="17.17" gradientUnits="userSpaceOnUse"><stop offset="0" stop-color="#c4c4c4"/><stop offset="0" stop-color="#c3c3c3"/><stop offset="0.08" stop-color="#aaafb7"/><stop offset="0.16" stop-color="#99a0ae"/><stop offset="0.25" stop-color="#8e98a9"/><stop offset="0.35" stop-color="#8b95a7"/></linearGradient><linearGradient id="linear-gradient-8" x1="29.31" y1="91.05" x2="29.31" y2="61.42" gradientUnits="userSpaceOnUse"><stop offset="0" stop-color="#ebebeb"/><stop offset="0.19" stop-color="#e8e8e8"/><stop offset="0.36" stop-color="#ddd"/><stop offset="0.52" stop-color="#cbcbcc"/><stop offset="0.67" stop-color="#b2b2b4"/><stop offset="0.82" stop-color="#919195"/><stop offset="0.97" stop-color="#69696f"/><stop offset="1" stop-color="#606066"/></linearGradient><linearGradient id="linear-gradient-9" x1="59.06" y1="61.3" x2="59.06" y2="31.67" xlink:href="#linear-gradient-8"/><linearGradient id="linear-gradient-10" x1="59.06" y1="120.8" x2="59.06" y2="91.17" xlink:href="#linear-gradient-8"/><linearGradient id="linear-gradient-11" x1="88.81" y1="91.05" x2="88.81" y2="61.42" xlink:href="#linear-gradient-8"/><linearGradient id="linear-gradient-12" x1="411.55" y1="98.92" x2="450.52" y2="66.96" gradientUnits="userSpaceOnUse"><stop offset="0" stop-color="#dbe0e1"/><stop offset="0.19" stop-color="#dbdfe1"/><stop offset="0.47" stop-color="#bfc6cc"/><stop offset="0.88" stop-color="#97a0b0"/><stop offset="1" stop-color="#8b95a7"/></linearGradient><linearGradient id="linear-gradient-13" x1="515.9" y1="63.01" x2="469" y2="91.41" xlink:href="#linear-gradient-12"/><linearGradient id="linear-gradient-14" x1="517.5" y1="99.73" x2="517.12" y2="64.85" gradientUnits="userSpaceOnUse"><stop offset="0" stop-color="#dbe0e1"/><stop offset="0.11" stop-color="#d6dcde"/><stop offset="0.23" stop-color="#c9cfd4"/><stop offset="0.35" stop-color="#b2bac3"/><stop offset="0.48" stop-color="#929cac"/><stop offset="0.51" stop-color="#8b95a7"/><stop offset="0.53" stop-color="#9099aa"/><stop offset="0.66" stop-color="#b0b8c2"/><stop offset="0.78" stop-color="#c8ced3"/><stop offset="0.9" stop-color="#d6dbdd"/><stop offset="1" stop-color="#dbe0e1"/></linearGradient><linearGradient id="linear-gradient-15" x1="446.49" y1="88.54" x2="476.22" y2="73.68" xlink:href="#linear-gradient-14"/><clipPath id="clip-path-3"><polygon id="_Clipping_Path_" data-name="&lt;Clipping Path&gt;" class="cls-2" points="284.47 115.65 251.41 115.65 242.56 50.56 268.26 45.22 293.32 50.56 284.47 115.65"/></clipPath><linearGradient id="linear-gradient-16" x1="273.32" y1="112.13" x2="273.32" y2="68.56" gradientUnits="userSpaceOnUse"><stop offset="0" stop-color="#393a4c"/><stop offset="0.59" stop-color="#393a4c" stop-opacity="0.43"/><stop offset="1" stop-color="#393a4c" stop-opacity="0"/></linearGradient></defs><title>logo_dark</title><g class="cls-3"><g id="Layer_2" data-name="Layer 2"><g id="Icons_and_Form_Fields" data-name="Icons and Form Fields"><path class="cls-5" d="M141.11,44h24.31l10.09,47.59h.21L199.3,44h24.2l-10.2,72.92H197.24L205.07,61h-.21l-27,55.93H165.62L155,61h-.21L147,116.9H130.91Z"/><path class="cls-6" d="M222.36,45l-9.92,70.92h-14l7.67-54.79.16-1.14h-2l-.27.57L177.25,115.9h-10.8L156,60.78l-.15-.81h-1.9l-.12.86-7.71,55.07h-14L142,45h22.63l9.93,46.79.17.79h1.64l.28-.56,23.31-47h22.43m1.15-1H199.3L175.72,91.56h-.21L165.42,44H141.11l-10.2,72.92H147L154.81,61H155l10.61,55.93h12.26l27-55.93h.21l-7.83,55.93h16.07L223.51,44Z"/><path class="cls-7" d="M230.31,80.43a45.21,45.21,0,0,1,5.2-15.86A42.37,42.37,0,0,1,258.94,44.8a48.43,48.43,0,0,1,16.17-2.68,41.59,41.59,0,0,1,15.35,2.68,29.76,29.76,0,0,1,11.33,7.67,29.26,29.26,0,0,1,6.49,12.1A39,39,0,0,1,309,80.43a45.88,45.88,0,0,1-5.15,15.86A42,42,0,0,1,294,108.4a43.54,43.54,0,0,1-13.54,7.67,48,48,0,0,1-16.12,2.68,42,42,0,0,1-15.4-2.68,29.64,29.64,0,0,1-11.38-7.67A29.21,29.21,0,0,1,231,96.3,38.93,38.93,0,0,1,230.31,80.43Zm16.69,0a25.15,25.15,0,0,0,.31,9.42,18.6,18.6,0,0,0,3.55,7.42,17,17,0,0,0,6.44,4.89,22,22,0,0,0,9.06,1.75,25.81,25.81,0,0,0,9.58-1.75,24.91,24.91,0,0,0,7.83-4.89,26.78,26.78,0,0,0,5.61-7.42,29.11,29.11,0,0,0,2.94-9.42,25.8,25.8,0,0,0-.26-9.37,17.8,17.8,0,0,0-3.55-7.47A17.5,17.5,0,0,0,282,58.7,22,22,0,0,0,272.95,57a25.84,25.84,0,0,0-9.58,1.75,25,25,0,0,0-7.83,4.89,26.53,26.53,0,0,0-5.61,7.47A29.55,29.55,0,0,0,247,80.43Z"/><path class="cls-8" d="M275.11,43.12a40.79,40.79,0,0,1,15,2.61,28.91,28.91,0,0,1,11,7.42,28.4,28.4,0,0,1,6.27,11.69A38.15,38.15,0,0,1,308,80.29a45.09,45.09,0,0,1-5,15.52,41.24,41.24,0,0,1-9.65,11.82,42.75,42.75,0,0,1-13.24,7.5,47.21,47.21,0,0,1-15.79,2.62,41.2,41.2,0,0,1-15-2.61,28.79,28.79,0,0,1-11-7.41A28.36,28.36,0,0,1,232,96a38.12,38.12,0,0,1-.69-15.46,44.42,44.42,0,0,1,5.08-15.52,41.37,41.37,0,0,1,22.89-19.32,47.65,47.65,0,0,1,15.84-2.62m-8.75,61.8a26.93,26.93,0,0,0,9.95-1.82A26,26,0,0,0,284.44,98a27.9,27.9,0,0,0,5.82-7.69,30.24,30.24,0,0,0,3-9.74,26.91,26.91,0,0,0-.27-9.74A18.88,18.88,0,0,0,289.27,63a18.57,18.57,0,0,0-6.85-5.17A23.12,23.12,0,0,0,272.95,56,27,27,0,0,0,263,57.77a26.06,26.06,0,0,0-8.14,5.09A27.65,27.65,0,0,0,249,70.61a30.68,30.68,0,0,0-3,9.69,26.25,26.25,0,0,0,.33,9.8,19.67,19.67,0,0,0,3.75,7.81,18.07,18.07,0,0,0,6.81,5.18,23.09,23.09,0,0,0,9.47,1.84m8.75-62.8a48.43,48.43,0,0,0-16.17,2.68,42.37,42.37,0,0,0-23.43,19.78,45.21,45.21,0,0,0-5.2,15.86A38.93,38.93,0,0,0,231,96.3a29.21,29.21,0,0,0,6.49,12.1,29.64,29.64,0,0,0,11.38,7.67,42,42,0,0,0,15.4,2.68,48,48,0,0,0,16.12-2.68A43.54,43.54,0,0,0,294,108.4a42,42,0,0,0,9.89-12.1A45.88,45.88,0,0,0,309,80.43a39,39,0,0,0-.72-15.86,29.26,29.26,0,0,0-6.49-12.1,29.76,29.76,0,0,0-11.33-7.67,41.59,41.59,0,0,0-15.35-2.68Zm-8.75,61.8a22,22,0,0,1-9.06-1.75,17,17,0,0,1-6.44-4.89,18.6,18.6,0,0,1-3.55-7.42,25.15,25.15,0,0,1-.31-9.42,29.55,29.55,0,0,1,2.94-9.37,26.53,26.53,0,0,1,5.61-7.47,25,25,0,0,1,7.83-4.89A25.84,25.84,0,0,1,272.95,57,22,22,0,0,1,282,58.7a17.5,17.5,0,0,1,6.49,4.89,17.8,17.8,0,0,1,3.55,7.47,25.8,25.8,0,0,1,.26,9.37,29.11,29.11,0,0,1-2.94,9.42,26.78,26.78,0,0,1-5.61,7.42,24.91,24.91,0,0,1-7.83,4.89,25.81,25.81,0,0,1-9.58,1.75Z"/><path class="cls-9" d="M318.88,44h18.33l11.33,47.79h.21l25-47.79H391L350.71,116.9H337.84Z"/><path class="cls-10" d="M389.29,45,350.12,115.9H338.61L320.18,45h16.25l11.15,47,.18.77h1.6l.28-.54L374.39,45h14.9M391,44h-17.2l-25,47.79h-.21L337.22,44H318.88l19,72.92h12.88L391,44Z"/><path class="cls-11" d="M400.12,38.85l8.85-7.7,7.15,8.22L405.3,116.9H389.23Z"/><path class="cls-11" d="M431.15,44H453l23.9,50.68h.21L484.2,44h16.07l-10.2,72.92h-21L444.44,65h-.21L437,116.9H421Z"/><path class="cls-11" d="M572.67,111.75A68.09,68.09,0,0,1,557,117.1a78.35,78.35,0,0,1-16,1.65,42,42,0,0,1-15.4-2.68,29.64,29.64,0,0,1-11.38-7.67,29.21,29.21,0,0,1-6.49-12.1,38.93,38.93,0,0,1-.72-15.86,45.21,45.21,0,0,1,5.2-15.86A42.37,42.37,0,0,1,535.7,44.8a48.43,48.43,0,0,1,16.17-2.68,55.09,55.09,0,0,1,15.81,2.11,26.4,26.4,0,0,1,11.9,7.26L566.49,63.85a18.14,18.14,0,0,0-6.69-5.15A24.92,24.92,0,0,0,549.7,57a25.84,25.84,0,0,0-9.58,1.75,24.94,24.94,0,0,0-7.83,4.89,26.53,26.53,0,0,0-5.61,7.47,29.54,29.54,0,0,0-2.94,9.37,25.15,25.15,0,0,0,.31,9.42,18.6,18.6,0,0,0,3.55,7.42,17,17,0,0,0,6.44,4.89,22,22,0,0,0,9.06,1.75,32.84,32.84,0,0,0,9.27-1.18,36.47,36.47,0,0,0,6.39-2.42l1.65-11.84H547.34l2.16-14.83H578Z"/><path class="cls-12" d="M59.06,21.17A55.06,55.06,0,1,1,4,76.23,55.12,55.12,0,0,1,59.06,21.17m0-3a58.06,58.06,0,1,0,58.06,58.06A58.13,58.13,0,0,0,59.06,18.17Z"/><path class="cls-13" d="M59.06,18.17A58.06,58.06,0,1,1,1,76.23,58.13,58.13,0,0,1,59.06,18.17m0-1a59.06,59.06,0,1,0,59.06,59.06A59.13,59.13,0,0,0,59.06,17.17Z"/><path class="cls-11" d="M59.06,23.57a52.66,52.66,0,1,0,52.66,52.66A52.66,52.66,0,0,0,59.06,23.57ZM29.31,91A14.81,14.81,0,1,1,44.12,76.23,14.81,14.81,0,0,1,29.31,91ZM59.06,31.67A14.81,14.81,0,1,1,44.25,46.48,14.81,14.81,0,0,1,59.06,31.67Zm6.75,44.56a6.75,6.75,0,1,1-6.75-6.75A6.75,6.75,0,0,1,65.81,76.23ZM59.06,120.8A14.81,14.81,0,1,1,73.87,106,14.81,14.81,0,0,1,59.06,120.8ZM88.81,91a14.81,14.81,0,1,1,14.81-14.81A14.81,14.81,0,0,1,88.81,91Z"/><path class="cls-11" d="M29.31,64.82A11.41,11.41,0,1,1,17.9,76.23,11.43,11.43,0,0,1,29.31,64.82m0-3.4A14.81,14.81,0,1,0,44.12,76.23,14.81,14.81,0,0,0,29.31,61.42Z"/><path class="cls-14" d="M29.31,63.42A12.81,12.81,0,1,1,16.5,76.23,12.83,12.83,0,0,1,29.31,63.42m0-2A14.81,14.81,0,1,0,44.12,76.23,14.81,14.81,0,0,0,29.31,61.42Z"/><path class="cls-11" d="M59.06,35.07A11.41,11.41,0,1,1,47.65,46.48,11.43,11.43,0,0,1,59.06,35.07m0-3.4A14.81,14.81,0,1,0,73.87,46.48,14.81,14.81,0,0,0,59.06,31.67Z"/><path class="cls-15" d="M59.06,33.67A12.81,12.81,0,1,1,46.25,46.48,12.83,12.83,0,0,1,59.06,33.67m0-2A14.81,14.81,0,1,0,73.87,46.48,14.81,14.81,0,0,0,59.06,31.67Z"/><path class="cls-11" d="M59.06,94.57A11.41,11.41,0,1,1,47.65,106,11.43,11.43,0,0,1,59.06,94.57m0-3.4A14.81,14.81,0,1,0,73.87,106,14.81,14.81,0,0,0,59.06,91.17Z"/><path class="cls-16" d="M59.06,93.17A12.81,12.81,0,1,1,46.25,106,12.83,12.83,0,0,1,59.06,93.17m0-2A14.81,14.81,0,1,0,73.87,106,14.81,14.81,0,0,0,59.06,91.17Z"/><path class="cls-11" d="M88.81,64.82A11.41,11.41,0,1,1,77.4,76.23,11.43,11.43,0,0,1,88.81,64.82m0-3.4a14.81,14.81,0,1,0,14.81,14.81A14.81,14.81,0,0,0,88.81,61.42Z"/><path class="cls-17" d="M88.81,63.42A12.81,12.81,0,1,1,76,76.23,12.83,12.83,0,0,1,88.81,63.42m0-2a14.81,14.81,0,1,0,14.81,14.81A14.81,14.81,0,0,0,88.81,61.42Z"/><path class="cls-18" d="M98.53,125.36a63.13,63.13,0,0,1-14.87,8.93h386.2l8.93-8.93Z"/><path class="cls-19" d="M95.79,127.44v1.86H474.86l3.93-3.93H98.53C97.64,126.08,96.72,126.77,95.79,127.44Z"/><polygon class="cls-20" points="420.96 116.9 437.02 116.9 444.23 64.98 431.15 43.97 420.96 116.9"/><polygon class="cls-21" points="484.2 43.97 477.09 94.65 490.07 116.9 500.27 43.97 484.2 43.97"/><path class="cls-22" d="M527.92,97.61c-.1-.12-.21-.22-.3-.34a18.6,18.6,0,0,1-3.55-7.42,25.15,25.15,0,0,1-.31-9.42,29.54,29.54,0,0,1,2.94-9.37q.57-1.12,1.23-2.16V66.83H511.1a46.05,46.05,0,0,0-4,13.6,38.93,38.93,0,0,0,.72,15.86A33.29,33.29,0,0,0,509,99.88h18.92Z"/><rect class="cls-11" x="402.79" y="73.64" width="147" height="14.66"/><rect class="cls-23" x="441.72" y="73.64" width="39.87" height="14.66"/><polygon class="cls-11" points="476.88 94.65 452.99 43.97 431.15 43.97 444.23 64.98 444.44 64.98 469.06 116.9 490.07 116.9 477.09 94.65 476.88 94.65"/><polygon class="cls-11" points="585.66 45.81 585.66 69.36 560.4 69.36 585.66 45.81"/><polygon class="cls-24" points="501.58 125.36 492.65 134.29 473.79 134.29 482.72 125.36 501.58 125.36"/><polygon class="cls-11" points="516.18 125.36 507.25 134.29 496.58 134.29 505.52 125.36 516.18 125.36"/><polygon class="cls-25" points="419.37 30.95 409.06 26.28 399.05 31.58 400.31 20.33 392.18 12.45 403.27 10.17 408.25 0 413.85 9.84 425.05 11.44 417.42 19.8 419.37 30.95"/><polygon class="cls-26" points="408.25 0 408.78 17.28 403.27 10.17 408.25 0"/><polygon class="cls-27" points="408.25 0 408.78 17.28 413.85 9.84 408.25 0"/><polygon class="cls-28" points="425.05 11.44 408.78 17.28 417.42 19.8 425.05 11.44"/><polygon class="cls-27" points="419.37 30.95 408.78 17.28 409.06 26.28 419.37 30.95"/><polygon class="cls-25" points="392.18 12.45 408.78 17.28 403.27 10.17 392.18 12.45"/><polygon class="cls-28" points="399.06 31.58 408.78 17.28 409.06 26.28 399.06 31.58"/><polygon class="cls-27" points="392.18 12.45 408.78 17.28 400.31 20.33 392.18 12.45"/><polygon class="cls-29" points="259.93 54.55 251.62 53.47 245.25 58.84 244.24 51.26 236.97 47.68 244.65 44.07 246.53 36.48 252.29 41.84 260.72 40.73 256.6 47.65 259.93 54.55"/><polygon class="cls-30" points="246.53 36.48 249.88 47.66 244.65 44.07 246.53 36.48"/><polygon class="cls-31" points="260.72 40.73 249.88 47.66 256.6 47.65 260.72 40.73"/><polygon class="cls-32" points="259.93 54.55 249.88 47.66 251.62 53.47 259.93 54.55"/><polygon class="cls-29" points="236.97 47.68 249.88 47.66 244.65 44.07 236.97 47.68"/><polygon class="cls-31" points="245.25 58.84 249.88 47.66 251.62 53.47 245.25 58.84"/><polygon class="cls-32" points="236.97 47.68 249.88 47.66 244.24 51.26 236.97 47.68"/><polygon class="cls-33" points="282.11 49.58 276.44 43.41 268.11 43.42 272.21 36.97 268.94 29.55 277.15 31.72 283.47 27.12 284.44 34.93 291.6 39.5 284 42.15 282.11 49.58"/><polygon class="cls-34" points="283.47 27.12 278.85 37.83 277.15 31.72 283.47 27.12"/><polygon class="cls-35" points="283.47 27.12 278.85 37.83 284.44 34.93 283.47 27.12"/><polygon class="cls-36" points="291.6 39.5 278.85 37.83 284 42.15 291.6 39.5"/><polygon class="cls-35" points="282.11 49.58 278.85 37.83 276.44 43.41 282.11 49.58"/><polygon class="cls-33" points="268.94 29.55 278.85 37.83 277.15 31.72 268.94 29.55"/><polygon class="cls-36" points="268.11 43.42 278.85 37.83 276.44 43.41 268.11 43.42"/><polygon class="cls-35" points="268.94 29.55 278.85 37.83 272.21 36.97 268.94 29.55"/><polygon class="cls-37" points="276.83 55.77 265.42 50.3 253.74 54.99 255.87 43.63 247.14 35.05 259.87 33.51 266.15 23.52 271.88 33.92 284.5 36.33 275.32 44.3 276.83 55.77"/><polygon class="cls-38" points="266.15 23.52 265.67 41.13 259.87 33.51 266.15 23.52"/><polygon class="cls-39" points="266.15 23.52 265.67 41.13 271.88 33.92 266.15 23.52"/><polygon class="cls-40" points="284.5 36.33 265.67 41.13 275.32 44.3 284.5 36.33"/><polygon class="cls-39" points="276.83 55.77 265.67 41.13 265.42 50.3 276.83 55.77"/><polygon class="cls-37" points="247.14 35.05 265.67 41.13 259.87 33.51 247.14 35.05"/><polygon class="cls-40" points="253.74 54.99 265.67 41.13 265.42 50.3 253.74 54.99"/><polygon class="cls-39" points="247.14 35.05 265.67 41.13 255.87 43.63 247.14 35.05"/><polygon class="cls-41" points="286.78 59.72 280.99 53.67 272.65 53.86 276.62 47.32 273.2 39.97 281.45 41.97 287.67 37.24 288.8 45.02 296.06 49.45 288.52 52.25 286.78 59.72"/><polygon class="cls-42" points="287.67 37.24 283.27 48.05 281.45 41.97 287.67 37.24"/><polygon class="cls-43" points="287.67 37.24 283.27 48.05 288.8 45.02 287.67 37.24"/><polygon class="cls-44" points="296.06 49.45 283.27 48.05 288.52 52.25 296.06 49.45"/><polygon class="cls-43" points="286.78 59.72 283.27 48.05 280.99 53.67 286.78 59.72"/><polygon class="cls-41" points="273.21 39.97 283.27 48.05 281.45 41.97 273.21 39.97"/><polygon class="cls-44" points="272.65 53.86 283.27 48.05 280.99 53.67 272.65 53.86"/><polygon class="cls-43" points="273.2 39.97 283.27 48.05 276.62 47.32 273.2 39.97"/><polygon class="cls-25" points="262.59 50.16 257.06 50.25 253.41 54.37 252.03 49.52 246.94 47.88 251.6 44.78 252.1 39.65 256.38 42.59 261.78 41.06 259.75 45.97 262.59 50.16"/><polygon class="cls-26" points="252.1 39.65 255.36 46.62 251.6 44.78 252.1 39.65"/><polygon class="cls-27" points="252.1 39.65 255.36 46.62 256.38 42.59 252.1 39.65"/><polygon class="cls-28" points="261.78 41.06 255.36 46.62 259.75 45.97 261.78 41.06"/><polygon class="cls-27" points="262.59 50.16 255.36 46.62 257.06 50.25 262.59 50.16"/><polygon class="cls-25" points="246.94 47.87 255.36 46.62 251.6 44.78 246.94 47.87"/><polygon class="cls-28" points="253.41 54.37 255.36 46.62 257.06 50.25 253.41 54.37"/><polygon class="cls-27" points="246.94 47.88 255.36 46.62 252.03 49.52 246.94 47.88"/><polygon class="cls-45" points="274.87 54.34 271.99 49.62 266.59 48.56 270.08 44.9 268.92 39.68 273.95 42.14 278.63 39.98 278.25 45.15 282.31 49.03 277.05 49.77 274.87 54.34"/><polygon class="cls-46" points="278.63 39.98 274.26 46.32 273.95 42.14 278.63 39.98"/><polygon class="cls-47" points="278.63 39.98 274.26 46.32 278.25 45.15 278.63 39.98"/><polygon class="cls-48" points="282.31 49.03 274.26 46.32 277.05 49.77 282.31 49.03"/><polygon class="cls-47" points="274.87 54.34 274.26 46.32 271.99 49.62 274.87 54.34"/><polygon class="cls-45" points="268.92 39.68 274.26 46.32 273.95 42.14 268.92 39.68"/><polygon class="cls-48" points="266.59 48.56 274.26 46.32 271.99 49.62 266.59 48.56"/><polygon class="cls-47" points="268.92 39.68 274.26 46.32 270.08 44.9 268.92 39.68"/><g class="cls-4"><polygon id="_Clipping_Path_2" data-name="&lt;Clipping Path&gt;" class="cls-11" points="284.47 115.65 251.41 115.65 242.56 50.56 268.26 45.22 293.32 50.56 284.47 115.65"/><g class="cls-49"><polygon class="cls-19" points="289.96 118.4 287.03 118.4 299.31 41.99 304.13 41.99 289.96 118.4"/><polygon class="cls-19" points="284.09 118.4 281.15 118.4 289.66 41.99 294.48 41.99 284.09 118.4"/><polygon class="cls-19" points="278.22 118.4 275.28 118.4 280 41.99 284.83 41.99 278.22 118.4"/><polygon class="cls-19" points="272.34 118.4 269.41 118.4 270.35 41.99 275.18 41.99 272.34 118.4"/><polygon class="cls-19" points="266.47 118.4 263.53 118.4 260.7 41.99 265.53 41.99 266.47 118.4"/><polygon class="cls-19" points="260.6 118.4 257.66 118.4 251.05 41.99 255.87 41.99 260.6 118.4"/><polygon class="cls-19" points="254.72 118.4 251.79 118.4 241.4 41.99 246.22 41.99 254.72 118.4"/><rect class="cls-50" x="239.77" y="68.56" width="67.1" height="43.57"/></g><polygon id="_Clipping_Path_3" data-name="&lt;Clipping Path&gt;" class="cls-51" points="284.47 115.65 251.41 115.65 242.56 50.56 268.26 45.22 293.32 50.56 284.47 115.65"/></g></g></g></g></svg>